<svg width="185" height="55" viewBox="0 0 185 55" fill="none" xmlns="http://www.w3.org/2000/svg">
<g id="loading">
<g id="pokeball 1">
<path id="Vector" d="M27.5 4.58331C30.5095 4.58331 33.4895 5.17607 36.2698 6.32774C39.0502 7.47941 41.5765 9.16744 43.7045 11.2954C45.8325 13.4235 47.5206 15.9498 48.6722 18.7302C49.8239 21.5105 50.4167 24.4905 50.4167 27.5C50.4167 33.5779 48.0022 39.4068 43.7045 43.7045C39.4068 48.0022 33.5779 50.4166 27.5 50.4166C24.4905 50.4166 21.5106 49.8239 18.7302 48.6722C15.9498 47.5206 13.4235 45.8325 11.2955 43.7045C6.99776 39.4068 4.58334 33.5779 4.58334 27.5C4.58334 21.4221 6.99776 15.5932 11.2955 11.2954C15.5932 6.99774 21.4221 4.58331 27.5 4.58331ZM27.5 9.16665C18.15 9.16665 10.4271 16.1562 9.30417 25.2083H18.6313C19.6396 21.2437 23.2375 18.3333 27.5 18.3333C31.7625 18.3333 35.3604 21.2437 36.3688 25.2083H45.6958C44.5729 16.1562 36.85 9.16665 27.5 9.16665ZM27.5 45.8333C36.85 45.8333 44.5729 38.8437 45.6958 29.7916H36.3688C35.3604 33.7562 31.7625 36.6666 27.5 36.6666C23.2375 36.6666 19.6396 33.7562 18.6313 29.7916H9.30417C10.4271 38.8437 18.15 45.8333 27.5 45.8333ZM27.5 22.9166C26.2844 22.9166 25.1186 23.3995 24.2591 24.2591C23.3996 25.1186 22.9167 26.2844 22.9167 27.5C22.9167 28.7156 23.3996 29.8813 24.2591 30.7409C25.1186 31.6004 26.2844 32.0833 27.5 32.0833C28.7156 32.0833 29.8814 31.6004 30.7409 30.7409C31.6005 29.8813 32.0833 28.7156 32.0833 27.5C32.0833 26.2844 31.6005 25.1186 30.7409 24.2591C29.8814 23.3995 28.7156 22.9166 27.5 22.9166Z" fill="#A01800"/>
</g>
<g id="pokeball 2">
<path id="Vector_2" d="M92.5 4.58331C95.5095 4.58331 98.4895 5.17607 101.27 6.32774C104.05 7.47941 106.577 9.16744 108.705 11.2954C110.833 13.4235 112.521 15.9498 113.672 18.7302C114.824 21.5105 115.417 24.4905 115.417 27.5C115.417 33.5779 113.002 39.4068 108.705 43.7045C104.407 48.0022 98.5779 50.4166 92.5 50.4166C89.4905 50.4166 86.5105 49.8239 83.7302 48.6722C80.9498 47.5206 78.4235 45.8325 76.2955 43.7045C71.9978 39.4068 69.5833 33.5779 69.5833 27.5C69.5833 21.4221 71.9978 15.5932 76.2955 11.2954C80.5932 6.99774 86.4221 4.58331 92.5 4.58331V4.58331ZM92.5 9.16665C83.15 9.16665 75.4271 16.1562 74.3042 25.2083H83.6312C84.6396 21.2437 88.2375 18.3333 92.5 18.3333C96.7625 18.3333 100.36 21.2437 101.369 25.2083H110.696C109.573 16.1562 101.85 9.16665 92.5 9.16665ZM92.5 45.8333C101.85 45.8333 109.573 38.8437 110.696 29.7916H101.369C100.36 33.7562 96.7625 36.6666 92.5 36.6666C88.2375 36.6666 84.6396 33.7562 83.6312 29.7916H74.3042C75.4271 38.8437 83.15 45.8333 92.5 45.8333ZM92.5 22.9166C91.2844 22.9166 90.1186 23.3995 89.2591 24.2591C88.3996 25.1186 87.9167 26.2844 87.9167 27.5C87.9167 28.7156 88.3996 29.8813 89.2591 30.7409C90.1186 31.6004 91.2844 32.0833 92.5 32.0833C93.7156 32.0833 94.8814 31.6004 95.7409 30.7409C96.6004 29.8813 97.0833 28.7156 97.0833 27.5C97.0833 26.2844 96.6004 25.1186 95.7409 24.2591C94.8814 23.3995 93.7156 22.9166 92.5 22.9166Z" fill="#A01800"/>
</g>
<g id="pokeball 3">
<path id="Vector_3" d="M157.5 4.58331C160.509 4.58331 163.489 5.17607 166.27 6.32774C169.05 7.47941 171.577 9.16744 173.705 11.2954C175.833 13.4235 177.521 15.9498 178.672 18.7302C179.824 21.5105 180.417 24.4905 180.417 27.5C180.417 33.5779 178.002 39.4068 173.705 43.7045C169.407 48.0022 163.578 50.4166 157.5 50.4166C154.491 50.4166 151.511 49.8239 148.73 48.6722C145.95 47.5206 143.423 45.8325 141.295 43.7045C136.998 39.4068 134.583 33.5779 134.583 27.5C134.583 21.4221 136.998 15.5932 141.295 11.2954C145.593 6.99774 151.422 4.58331 157.5 4.58331V4.58331ZM157.5 9.16665C148.15 9.16665 140.427 16.1562 139.304 25.2083H148.631C149.64 21.2437 153.238 18.3333 157.5 18.3333C161.763 18.3333 165.36 21.2437 166.369 25.2083H175.696C174.573 16.1562 166.85 9.16665 157.5 9.16665ZM157.5 45.8333C166.85 45.8333 174.573 38.8437 175.696 29.7916H166.369C165.36 33.7562 161.763 36.6666 157.5 36.6666C153.238 36.6666 149.64 33.7562 148.631 29.7916H139.304C140.427 38.8437 148.15 45.8333 157.5 45.8333ZM157.5 22.9166C156.284 22.9166 155.119 23.3995 154.259 24.2591C153.4 25.1186 152.917 26.2844 152.917 27.5C152.917 28.7156 153.4 29.8813 154.259 30.7409C155.119 31.6004 156.284 32.0833 157.5 32.0833C158.716 32.0833 159.881 31.6004 160.741 30.7409C161.6 29.8813 162.083 28.7156 162.083 27.5C162.083 26.2844 161.6 25.1186 160.741 24.2591C159.881 23.3995 158.716 22.9166 157.5 22.9166Z" fill="#A01800"/>
</g>
</g>
</svg>
