<svg width="98" height="26" viewBox="0 0 98 26" fill="none" xmlns="http://www.w3.org/2000/svg">
<rect y="9.99988" width="97" height="6" rx="3" fill="#2D2D2D"/>
<path d="M96.767 14.2182C96.0875 15.7294 94.3117 16.4036 92.8006 15.7241L72.7361 6.70259C71.225 6.02314 70.5508 4.24733 71.2302 2.7362V2.7362C71.9097 1.22507 73.6855 0.550853 75.1966 1.2303L95.2611 10.2518C96.7722 10.9313 97.4464 12.7071 96.767 14.2182V14.2182Z" fill="#2D2D2D"/>
<path d="M71.2303 23.2182C71.9097 24.7294 73.6855 25.4036 75.1966 24.7241L95.2611 15.7026C96.7722 15.0231 97.4464 13.2473 96.767 11.7362V11.7362C96.0875 10.2251 94.3117 9.55085 92.8006 10.2303L72.7361 19.2518C71.225 19.9313 70.5508 21.7071 71.2303 23.2182V23.2182Z" fill="#2D2D2D"/>
</svg>
