<svg width="34" height="34" viewBox="0 0 34 34" fill="none" xmlns="http://www.w3.org/2000/svg">
<path d="M31.4367 16.7667L17.7604 3.10031C17.6619 3.00165 17.5449 2.92337 17.4162 2.86996C17.2874 2.81655 17.1494 2.78906 17.01 2.78906C16.8706 2.78906 16.7325 2.81655 16.6038 2.86996C16.475 2.92337 16.358 3.00165 16.2596 3.10031L2.5832 16.7667C2.18477 17.1652 1.95898 17.7064 1.95898 18.2708C1.95898 19.4429 2.91191 20.3958 4.08398 20.3958H5.525V30.1476C5.525 30.7353 5.9998 31.2101 6.5875 31.2101H14.885V23.7726H18.6037V31.2101H27.4324C28.0201 31.2101 28.4949 30.7353 28.4949 30.1476V20.3958H29.9359C30.5004 20.3958 31.0416 20.1734 31.44 19.7716C32.2668 18.9415 32.2668 17.5968 31.4367 16.7667Z" fill="#2D2D2D"/>
</svg>
