<svg width="185" height="55" viewBox="0 0 185 55" fill="none" xmlns="http://www.w3.org/2000/svg">
<g class="pokeball" id="1">
<path id="Vector" d="M27.5 4.58334C30.5095 4.58334 33.4895 5.1761 36.2698 6.32777C39.0502 7.47944 41.5765 9.16747 43.7045 11.2955C45.8325 13.4235 47.5206 15.9498 48.6722 18.7302C49.8239 21.5106 50.4167 24.4906 50.4167 27.5C50.4167 33.5779 48.0022 39.4068 43.7045 43.7045C39.4068 48.0022 33.5779 50.4167 27.5 50.4167C24.4905 50.4167 21.5106 49.8239 18.7302 48.6723C15.9498 47.5206 13.4235 45.8325 11.2955 43.7045C6.99776 39.4068 4.58334 33.5779 4.58334 27.5C4.58334 21.4221 6.99776 15.5932 11.2955 11.2955C15.5932 6.99777 21.4221 4.58334 27.5 4.58334ZM27.5 9.16668C18.15 9.16668 10.4271 16.1563 9.30417 25.2083H18.6313C19.6396 21.2438 23.2375 18.3333 27.5 18.3333C31.7625 18.3333 35.3604 21.2438 36.3688 25.2083H45.6958C44.5729 16.1563 36.85 9.16668 27.5 9.16668ZM27.5 45.8333C36.85 45.8333 44.5729 38.8438 45.6958 29.7917H36.3688C35.3604 33.7563 31.7625 36.6667 27.5 36.6667C23.2375 36.6667 19.6396 33.7563 18.6313 29.7917H9.30417C10.4271 38.8438 18.15 45.8333 27.5 45.8333ZM27.5 22.9167C26.2844 22.9167 25.1186 23.3996 24.2591 24.2591C23.3996 25.1186 22.9167 26.2844 22.9167 27.5C22.9167 28.7156 23.3996 29.8814 24.2591 30.7409C25.1186 31.6005 26.2844 32.0833 27.5 32.0833C28.7156 32.0833 29.8814 31.6005 30.7409 30.7409C31.6005 29.8814 32.0833 28.7156 32.0833 27.5C32.0833 26.2844 31.6005 25.1186 30.7409 24.2591C29.8814 23.3996 28.7156 22.9167 27.5 22.9167Z" fill="white"/>
</g>
<g class="pokeball" id="2">
<path id="Vector_2" d="M92.5 4.58334C95.5095 4.58334 98.4895 5.1761 101.27 6.32777C104.05 7.47944 106.577 9.16747 108.705 11.2955C110.833 13.4235 112.521 15.9498 113.672 18.7302C114.824 21.5106 115.417 24.4906 115.417 27.5C115.417 33.5779 113.002 39.4068 108.705 43.7045C104.407 48.0023 98.5779 50.4167 92.5 50.4167C89.4905 50.4167 86.5105 49.8239 83.7302 48.6723C80.9498 47.5206 78.4235 45.8326 76.2955 43.7045C71.9978 39.4068 69.5833 33.5779 69.5833 27.5C69.5833 21.4221 71.9978 15.5932 76.2955 11.2955C80.5932 6.99777 86.4221 4.58334 92.5 4.58334ZM92.5 9.16668C83.15 9.16668 75.4271 16.1563 74.3042 25.2083H83.6313C84.6396 21.2438 88.2375 18.3333 92.5 18.3333C96.7625 18.3333 100.36 21.2438 101.369 25.2083H110.696C109.573 16.1563 101.85 9.16668 92.5 9.16668ZM92.5 45.8333C101.85 45.8333 109.573 38.8438 110.696 29.7917H101.369C100.36 33.7563 96.7625 36.6667 92.5 36.6667C88.2375 36.6667 84.6396 33.7563 83.6313 29.7917H74.3042C75.4271 38.8438 83.15 45.8333 92.5 45.8333ZM92.5 22.9167C91.2844 22.9167 90.1186 23.3996 89.2591 24.2591C88.3996 25.1186 87.9167 26.2844 87.9167 27.5C87.9167 28.7156 88.3996 29.8814 89.2591 30.7409C90.1186 31.6005 91.2844 32.0833 92.5 32.0833C93.7156 32.0833 94.8814 31.6005 95.7409 30.7409C96.6004 29.8814 97.0833 28.7156 97.0833 27.5C97.0833 26.2844 96.6004 25.1186 95.7409 24.2591C94.8814 23.3996 93.7156 22.9167 92.5 22.9167Z" fill="white"/>
</g>
<g class="pokeball" id="3">
<path id="Vector_3" d="M157.5 4.58334C160.509 4.58334 163.489 5.1761 166.27 6.32777C169.05 7.47944 171.577 9.16747 173.705 11.2955C175.833 13.4235 177.521 15.9498 178.672 18.7302C179.824 21.5106 180.417 24.4906 180.417 27.5C180.417 33.5779 178.002 39.4068 173.705 43.7045C169.407 48.0023 163.578 50.4167 157.5 50.4167C154.491 50.4167 151.511 49.8239 148.73 48.6723C145.95 47.5206 143.423 45.8326 141.295 43.7045C136.998 39.4068 134.583 33.5779 134.583 27.5C134.583 21.4221 136.998 15.5932 141.295 11.2955C145.593 6.99777 151.422 4.58334 157.5 4.58334ZM157.5 9.16668C148.15 9.16668 140.427 16.1563 139.304 25.2083H148.631C149.64 21.2438 153.237 18.3333 157.5 18.3333C161.762 18.3333 165.36 21.2438 166.369 25.2083H175.696C174.573 16.1563 166.85 9.16668 157.5 9.16668ZM157.5 45.8333C166.85 45.8333 174.573 38.8438 175.696 29.7917H166.369C165.36 33.7563 161.762 36.6667 157.5 36.6667C153.237 36.6667 149.64 33.7563 148.631 29.7917H139.304C140.427 38.8438 148.15 45.8333 157.5 45.8333ZM157.5 22.9167C156.284 22.9167 155.119 23.3996 154.259 24.2591C153.4 25.1186 152.917 26.2844 152.917 27.5C152.917 28.7156 153.4 29.8814 154.259 30.7409C155.119 31.6005 156.284 32.0833 157.5 32.0833C158.716 32.0833 159.881 31.6005 160.741 30.7409C161.6 29.8814 162.083 28.7156 162.083 27.5C162.083 26.2844 161.6 25.1186 160.741 24.2591C159.881 23.3996 158.716 22.9167 157.5 22.9167Z" fill="white"/>
</g>
</svg>
